<?xml version="1.0" encoding="UTF-8"?>
<svg version="1.1" xmlns="http://www.w3.org/2000/svg" width="500" height="500">
<path d="M0 0 C0.01458252 0.74161377 0.02916504 1.48322754 0.04418945 2.24731445 C0.11859457 5.60290631 0.21528006 8.95749494 0.3125 12.3125 C0.33505859 13.47974609 0.35761719 14.64699219 0.38085938 15.84960938 C0.41630859 16.96787109 0.45175781 18.08613281 0.48828125 19.23828125 C0.51446533 20.26993408 0.54064941 21.30158691 0.56762695 22.36450195 C0.81484345 24.98739766 0.81484345 24.98739766 2.19921875 26.828125 C4.63918427 28.41595506 6.4234589 28.43158726 9.32421875 28.51171875 C10.86625977 28.56489258 10.86625977 28.56489258 12.43945312 28.61914062 C14.04723633 28.65297852 14.04723633 28.65297852 15.6875 28.6875 C16.77095703 28.72166016 17.85441406 28.75582031 18.97070312 28.79101562 C21.6470322 28.8735456 24.32303159 28.94267937 27 29 C26.96648437 27.92234375 26.93296875 26.8446875 26.8984375 25.734375 C27.02484734 21.08638248 28.06094918 18.53233747 31 15 C34.8919573 12.25793917 38.36751918 11.45176467 43.04296875 11.6484375 C47.40073937 12.43127055 50.12505352 14.95006422 52.875 18.25 C54 21 54 21 54 29 C79.08 29 104.16 29 130 29 C129.67 28.01 129.34 27.02 129 26 C129.69444439 21.21604979 130.23465592 18.22023354 134 15.0625 C138.77545198 11.77937676 142.2555088 11.16460831 148 12 C151.73306872 13.6911082 154.27731358 15.8374175 156.4375 19.3125 C157.19953022 22.95331105 157.1260428 26.28173728 157 30 C159.31 30 161.62 30 164 30 C164 29.34 164 28.68 164 28 C167.97915159 27.97113016 171.95827653 27.95324594 175.9375 27.9375 C177.07380859 27.92912109 178.21011719 27.92074219 179.38085938 27.91210938 C180.46044922 27.90888672 181.54003906 27.90566406 182.65234375 27.90234375 C184.15269165 27.89448853 184.15269165 27.89448853 185.68334961 27.88647461 C188 28 188 28 189 29 C190.64340867 29.09854655 192.2911461 29.12972411 193.9375 29.125 C194.83339844 29.12757813 195.72929687 29.13015625 196.65234375 29.1328125 C199.02155555 29.15421413 199.02155555 29.15421413 201 28 C201 26.02 201 24.04 201 22 C199.02 21.67 197.04 21.34 195 21 C195 18.36 195 15.72 195 13 C196.485 12.505 196.485 12.505 198 12 C197.67 8.7 197.34 5.4 197 2 C203.80516013 3.34892243 210.06262423 5.33971953 216.53515625 7.81640625 C217.53091171 8.1917601 218.52666718 8.56711395 219.55259705 8.95384216 C222.72475162 10.15103602 225.89366998 11.35653771 229.0625 12.5625 C231.13064535 13.34496697 233.19900331 14.12687221 235.26757812 14.90820312 C239.40093236 16.47011522 243.53311953 18.03505981 247.66455078 19.60205078 C257.76564001 23.42986313 267.88323799 27.21384779 278 31 C273.03292292 73.86257136 246.11960494 115.60099172 212.79882812 142.12280273 C178.98176086 168.1855633 139.83300718 182.21885132 97.125 182.25 C95.88062668 182.25101212 95.88062668 182.25101212 94.6111145 182.25204468 C82.46595119 182.23633789 70.86937737 181.75402374 59 179 C57.40113626 178.66751356 55.80217374 178.33550182 54.203125 178.00390625 C20.4495663 170.63198364 -10.75249423 152.45271486 -35 128 C-35.7101123 127.28577881 -35.7101123 127.28577881 -36.43457031 126.55712891 C-58.38675342 104.18889823 -83.74179334 66.32684102 -84.02783203 33.83886719 C-84.01864746 32.90204102 -84.00946289 31.96521484 -84 31 C-63.88148424 23.20745478 -43.68872491 15.6284766 -23.4375 8.1875 C-22.33004425 7.78001526 -21.2225885 7.37253052 -20.08157349 6.95269775 C-16.92881869 5.79326345 -13.77515932 4.63633191 -10.62109375 3.48046875 C-9.6622226 3.12795547 -8.70335144 2.7754422 -7.71542358 2.4122467 C-6.84310089 2.09340012 -5.9707782 1.77455353 -5.07202148 1.44604492 C-3.92345924 1.02520882 -3.92345924 1.02520882 -2.75169373 0.59587097 C-1 0 -1 0 0 0 Z M31 20 C30.67 20.33 30.34 20.66 30 21 C29.33701652 25.49881649 29.23680364 29.68561442 31.9375 33.5 C35.38923791 36.31774523 37.41119984 37.02706216 41.78125 37.23828125 C45.35517431 36.85446191 47.37644628 35.36759726 50 33 C52.59107284 29.58449489 52.50288306 26.16674536 52 22 C50.21523759 19.02760759 48.14791945 16.57395973 45 15 C38.56096377 14.11447439 35.18751672 14.6347442 31 20 Z M136 17 C132.93509036 19.96274598 132.16580101 22.77207437 132 27 C133.16392306 30.81508113 134.21058668 33.25702276 137.125 36 C141.29972965 37.45207988 144.77331873 37.24043907 149 36 C152.63016953 33.42862992 153.75896167 31.82856925 155 27.5625 C155 22.75737589 153.45422161 20.00821079 150.6875 16.1875 C145.5874891 12.59860344 141.08531229 14.21747063 136 17 Z M65 63 C65 63.33 65 63.66 65 64 C72.425 64.99 72.425 64.99 80 66 C80 66.66 80 67.32 80 68 C78.66195312 67.96519531 78.66195312 67.96519531 77.296875 67.9296875 C75.54117188 67.90261719 75.54117188 67.90261719 73.75 67.875 C72.58984375 67.85179687 71.4296875 67.82859375 70.234375 67.8046875 C67.17213954 67.9896051 65.55797249 68.39176977 63 70 C63.87398437 69.96519531 63.87398437 69.96519531 64.765625 69.9296875 C76.29171277 69.67596859 87.05851783 71.46296925 97.0625 77.375 C98.56490234 78.25285156 98.56490234 78.25285156 100.09765625 79.1484375 C107.40513834 83.81027668 107.40513834 83.81027668 109 87 C108.36610352 86.99476318 107.73220703 86.98952637 107.07910156 86.98413086 C90.41983959 86.14603115 90.41983959 86.14603115 74 88 C73.34 88.99 72.68 89.98 72 91 C73.29099609 91.01345459 74.58199219 91.02690918 75.91210938 91.04077148 C80.72935655 91.10269763 85.54373414 91.22285258 90.359375 91.36010742 C92.43847361 91.41134143 94.51801794 91.44704793 96.59765625 91.46655273 C113.87482742 91.64445464 113.87482742 91.64445464 119.19140625 95.03564453 C124 100.32658179 124 100.32658179 124 104 C123.01 104.495 123.01 104.495 122 105 C121.34786708 107.02463255 121.34786708 107.02463255 121 109 C124.50147041 110.1671568 127.32670036 110.13357453 131 110 C131.66 109.67 132.32 109.34 133 109 C133 109.66 133 110.32 133 111 C133.69867188 110.98839844 134.39734375 110.97679687 135.1171875 110.96484375 C136.02726562 110.95582031 136.93734375 110.94679688 137.875 110.9375 C138.77992188 110.92589844 139.68484375 110.91429687 140.6171875 110.90234375 C143 111 143 111 145 112 C147.43410239 112.11074254 149.83872076 112.16409243 152.2734375 112.16796875 C152.99359039 112.17129715 153.71374329 112.17462555 154.45571899 112.17805481 C155.98056397 112.1831205 157.50542005 112.18546325 159.03027344 112.18530273 C161.35891101 112.18748492 163.68707155 112.20563196 166.015625 112.22460938 C167.49739421 112.22754427 168.97916568 112.22952842 170.4609375 112.23046875 C171.5033107 112.24124702 171.5033107 112.24124702 172.56674194 112.25224304 C176.29218606 112.23471539 178.76035731 111.80825052 182 110 C182.66 110.33 183.32 110.66 184 111 C186.59047977 110.24714403 186.59047977 110.24714403 189 109 C189.495 108.01 189.495 108.01 190 107 C189.02471263 105.66382648 188.04466681 104.3311249 187.0625 103 C186.51722656 102.2575 185.97195313 101.515 185.41015625 100.75 C184.94480469 100.1725 184.47945313 99.595 184 99 C183.67 99 183.34 99 183 99 C182.67 100.98 182.34 102.96 182 105 C179.57195155 105.64747959 177.50889153 106 175 106 C174.67 105.34 174.34 104.68 174 104 C172.74703125 104.03480469 171.4940625 104.06960938 170.203125 104.10546875 C168.55209676 104.13361128 166.90105399 104.16091094 165.25 104.1875 C164.0125 104.22520508 164.0125 104.22520508 162.75 104.26367188 C156.62789172 104.33772964 156.62789172 104.33772964 153.421875 102.61328125 C152 101 152 101 152 99 C159.92 98.505 159.92 98.505 168 98 C167.34 97.01 166.68 96.02 166 95 C163.98757181 94.60108916 163.98757181 94.60108916 161.67578125 94.7421875 C160.37930664 94.76345703 160.37930664 94.76345703 159.05664062 94.78515625 C158.15107422 94.81480469 157.24550781 94.84445312 156.3125 94.875 C140.46943667 95.26675575 140.46943667 95.26675575 136.84765625 92.14453125 C136.25855469 91.37496094 135.66945313 90.60539062 135.0625 89.8125 C131.93103224 85.98312761 128.8232578 83.16569795 124.79296875 80.328125 C123 79 123 79 120.625 76.5 C117.42489779 73.45228361 113.95030405 71.48545153 110.109375 69.33203125 C108 68 108 68 107 66 C115.25 66.99 123.5 67.98 132 69 C132.33 68.34 132.66 67.68 133 67 C127.89816 65.40860037 122.99456293 64.459005 117.6875 63.875 C116.94419434 63.79080811 116.20088867 63.70661621 115.43505859 63.61987305 C105.61320045 62.42065722 105.61320045 62.42065722 96 64 C95.01 63.34 94.02 62.68 93 62 C91.0219369 61.70990042 91.0219369 61.70990042 88.8671875 61.76953125 C88.06023437 61.77146484 87.25328125 61.77339844 86.421875 61.77539062 C85.16117188 61.79375977 85.16117188 61.79375977 83.875 61.8125 C82.64910156 61.8134668 82.64910156 61.8134668 81.3984375 61.81445312 C75.867062 61.85383792 70.48769679 62.30989729 65 63 Z M135 68 C134.67 68.66 134.34 69.32 134 70 C136.64 70.66 139.28 71.32 142 72 C140.77409808 69.92022703 140.77409808 69.92022703 139 68 C137.68 68 136.36 68 135 68 Z M59 70 C58.01 70.66 57.02 71.32 56 72 C56.99 72 57.98 72 59 72 C58.98839844 72.556875 58.97679687 73.11375 58.96484375 73.6875 C58.90323567 78.89778343 59.25000656 83.8437951 60 89 C59.443125 88.98839844 58.88625 88.97679687 58.3125 88.96484375 C53.10221657 88.90323567 48.1562049 89.25000656 43 90 C43 90.33 43 90.66 43 91 C52.24 91 61.48 91 71 91 C71 90.34 71 89.68 71 89 C71.66 88.67 72.32 88.34 73 88 C69.7 88 66.4 88 63 88 C63 82.72 63 77.44 63 72 C61.68 71.34 60.36 70.68 59 70 Z M144 71 C147.06679465 74.42409111 150.11716523 76.27342685 154.25 78.25 C155.32765625 78.77078125 156.4053125 79.2915625 157.515625 79.828125 C158.33546875 80.21484375 159.1553125 80.6015625 160 81 C160 80.01 160 79.02 160 78 C157.89983377 76.82558465 155.79541245 75.66035988 153.6875 74.5 C153.09259766 74.16613281 152.49769531 73.83226562 151.88476562 73.48828125 C149.04171156 71.93174886 147.29339012 71 144 71 Z M52 72 C56 73 56 73 56 73 Z M33 78 C33.66 79.32 34.32 80.64 35 82 C35 80.68 35 79.36 35 78 C34.34 78 33.68 78 33 78 Z M162 80 C161.67 80.99 161.34 81.98 161 83 C161.74765625 83.51949219 162.4953125 84.03898437 163.265625 84.57421875 C164.25046875 85.27160156 165.2353125 85.96898437 166.25 86.6875 C167.22453125 87.37199219 168.1990625 88.05648437 169.203125 88.76171875 C171.94640806 90.95711148 173.92501437 93.17900763 176 96 C173.36 95.67 170.72 95.34 168 95 C169.2488427 96.5833253 169.2488427 96.5833253 171 98 C172.32 98 173.64 98 175 98 C175.33 99.32 175.66 100.64 176 102 C176.33 100.68 176.66 99.36 177 98 C178.98 98 180.96 98 183 98 C177.48469874 91.21193691 171.24960233 84.95542437 164 80 C163.34 80 162.68 80 162 80 Z M34 84 C35 86 35 86 35 86 Z M38 90 C42 91 42 91 42 91 Z M41 98 C41 98.33 41 98.66 41 99 C43.97 99 46.94 99 50 99 C50 98.67 50 98.34 50 98 C47.03 98 44.06 98 41 98 Z M51 98 C52.78657757 100.21370051 52.78657757 100.21370051 55.1640625 100.1953125 C55.97617188 100.17210937 56.78828125 100.14890625 57.625 100.125 C58.44226563 100.10695313 59.25953125 100.08890625 60.1015625 100.0703125 C60.72804687 100.04710937 61.35453125 100.02390625 62 100 C62 99.67 62 99.34 62 99 C58.37 98.67 54.74 98.34 51 98 Z M63 99 C62.67 99.66 62.34 100.32 62 101 C66.29 101.33 70.58 101.66 75 102 C75 101.34 75 100.68 75 100 C72.11788698 99.03929566 70.30149956 98.89418117 67.3125 98.9375 C66.50425781 98.94652344 65.69601563 98.95554687 64.86328125 98.96484375 C64.24839844 98.97644531 63.63351563 98.98804688 63 99 Z M77 100 C77.33 100.99 77.66 101.98 78 103 C79.60226955 103.22245393 81.20696767 103.42746669 82.8125 103.625 C83.70582031 103.74101562 84.59914062 103.85703125 85.51953125 103.9765625 C88.25690391 104.23500743 88.25690391 104.23500743 91 102 C91 102.66 91 103.32 91 104 C95.61507774 105.04214691 95.61507774 105.04214691 100 104 C100.66 104.66 101.32 105.32 102 106 C102.33 104.68 102.66 103.36 103 102 C99.60454455 101.66274171 96.2085816 101.33088879 92.8125 101 C91.85279297 100.90460938 90.89308594 100.80921875 89.90429688 100.7109375 C88.97294922 100.62070312 88.04160156 100.53046875 87.08203125 100.4375 C85.80162964 100.31181641 85.80162964 100.31181641 84.49536133 100.18359375 C81.98711079 99.99905169 79.51404403 99.96850062 77 100 Z M104 102 C104.33 103.65 104.66 105.3 105 107 C105.66 106.67 106.32 106.34 107 106 C106.67 104.68 106.34 103.36 106 102 C105.34 102 104.68 102 104 102 Z M19 103 C22.00984613 105.00656409 24.12970143 105.71086326 27.59375 106.62109375 C29.264375 107.06485352 29.264375 107.06485352 30.96875 107.51757812 C32.1340625 107.82115234 33.299375 108.12472656 34.5 108.4375 C36.78128655 109.04022627 39.06253689 109.6430896 41.34375 110.24609375 C42.4577417 110.53830811 43.5717334 110.83052246 44.71948242 111.1315918 C48.70795798 112.18740839 52.68484695 113.28277565 56.65942383 114.38964844 C58.82761549 114.95504733 60.98442298 115.408258 63.1875 115.8125 C67.31362517 116.70443918 71.19088634 118.11961187 75.125 119.625 C82.13901924 122.30866943 89.1758312 124.91600311 96.25 127.4375 C97.25047363 127.80375488 98.25094727 128.17000977 99.28173828 128.54736328 C100.69688721 129.04792236 100.69688721 129.04792236 102.140625 129.55859375 C102.98141602 129.86079834 103.82220703 130.16300293 104.68847656 130.47436523 C108.00286422 131.22804887 110.02343183 130.48828409 113 129 C112.505 130.485 112.505 130.485 112 132 C116.74354436 134.22656164 120.72250715 135.46148032 126 136 C125.01 134.68 124.02 133.36 123 132 C125.14620792 132.9620932 126.72892225 133.6747067 128.25 135.5 C132.00836309 138.72145407 137.22811659 139 142 139 C142 138.34 142 137.68 142 137 C143.75 136.375 143.75 136.375 146 136 C146.61262695 136.31372559 147.22525391 136.62745117 147.85644531 136.95068359 C150.24504706 138.11995584 151.90331779 138.30689126 154.546875 138.4140625 C155.39121094 138.45273437 156.23554688 138.49140625 157.10546875 138.53125 C158.41451172 138.57765625 158.41451172 138.57765625 159.75 138.625 C160.63816406 138.66367187 161.52632812 138.70234375 162.44140625 138.7421875 C164.6273998 138.83620873 166.81339062 138.92186143 169 139 C169 138.34 169 137.68 169 137 C170.32 137.66 171.64 138.32 173 139 C174.90263213 136.76647533 175.94514216 135.46665736 176.29296875 132.5078125 C177 130 177 130 179.1796875 128.62890625 C180.9711683 127.92010298 182.76283397 127.21176675 184.5546875 126.50390625 C187.73925781 124.54534464 188.58938692 122.39574737 190 119 C188.76765625 119.20496094 187.5353125 119.40992188 186.265625 119.62109375 C177.93615765 120.98406687 169.68565866 122.28579877 161.25 122.7890625 C158.83257089 122.93008947 158.83257089 122.93008947 156 124 C155.34 123.67 154.68 123.34 154 123 C149.78886205 122.34559138 145.54684 121.91612469 141.3125 121.4375 C140.14009766 121.29892578 138.96769531 121.16035156 137.75976562 121.01757812 C130.85669339 120.19223061 130.85669339 120.19223061 123.91796875 120.03515625 C121 120 121 120 119.23901367 119.09423828 C114.59916334 116.82667649 109.25501767 116.23593224 104.21044922 115.23071289 C102.13636838 114.8147798 100.06639867 114.38155231 97.99609375 113.94726562 C96.66688183 113.6786207 95.33746067 113.41100857 94.0078125 113.14453125 C92.80785645 112.90065674 91.60790039 112.65678223 90.37158203 112.40551758 C86.96501693 111.99579241 84.33259729 112.25656468 81 113 C81 112.34 81 111.68 81 111 C79.12612523 110.6603981 77.25083303 110.32861309 75.375 110 C73.80878906 109.7215625 73.80878906 109.7215625 72.2109375 109.4375 C67.83104368 108.84072615 64.21728254 108.59423915 60 110 C60 109.34 60 108.68 60 108 C58.5459375 108.0309375 58.5459375 108.0309375 57.0625 108.0625 C54 108 54 108 53 107 C50.12597414 106.44568055 47.2657625 105.95035329 44.375 105.5 C43.52574951 105.3661792 42.67649902 105.2323584 41.80151367 105.09448242 C34.21190538 103.94514412 26.66715012 103.33235778 19 103 Z M109 103 C108.67 104.32 108.34 105.64 108 107 C109.32 106.67 110.64 106.34 112 106 C111.34 105.67 110.68 105.34 110 105 C109.67 104.34 109.34 103.68 109 103 Z M114 103 C114 104.65 114 106.3 114 108 C114.33 108 114.66 108 115 108 C115 106.35 115 104.7 115 103 C114.67 103 114.34 103 114 103 Z M117 105 C116.67 105.99 116.34 106.98 116 108 C117.32 108.33 118.64 108.66 120 109 C119.67 107.68 119.34 106.36 119 105 C118.34 105 117.68 105 117 105 Z " fill="#000000" transform="translate(153,252)"/>
<path d="M0 0 C15.6488969 14.48261119 27.71437797 30.81519483 37.8828125 49.54101562 C38.46804688 50.58128906 39.05328125 51.6215625 39.65625 52.69335938 C47.11175472 66.60917701 55.8828125 86.57509461 55.8828125 102.54101562 C40.19966833 108.95861779 24.34479617 114.87718712 8.43621826 120.70855713 C5.83510086 121.66280786 3.2350349 122.61990515 0.63498878 123.57707024 C-2.49811861 124.73028719 -5.63186204 125.8817687 -8.765625 127.03320312 C-9.91872162 127.45713348 -11.07181824 127.88106384 -12.25985718 128.31784058 C-13.33603302 128.71230377 -14.41220886 129.10676697 -15.52099609 129.51318359 C-16.4599472 129.85767548 -17.39889832 130.20216736 -18.36630249 130.55709839 C-21.26960544 131.5955314 -24.18872109 132.57607814 -27.1171875 133.54101562 C-28.28911185 130.4179619 -29.45382626 127.29226823 -30.6171875 124.16601562 C-30.95105469 123.2765625 -31.28492188 122.38710937 -31.62890625 121.47070312 C-31.94472656 120.61992187 -32.26054687 119.76914063 -32.5859375 118.89257812 C-33.02583008 117.71429443 -33.02583008 117.71429443 -33.47460938 116.51220703 C-34.1171875 114.54101562 -34.1171875 114.54101562 -34.1171875 112.54101562 C-31.36639866 111.62408601 -29.75769837 111.43215479 -26.9296875 111.47851562 C-25.6715625 111.49914062 -24.4134375 111.51976562 -23.1171875 111.54101562 C-22.4571875 114.84101563 -21.7971875 118.14101562 -21.1171875 121.54101562 C-18.98132072 118.33721545 -18.88586575 117.52161595 -18.9921875 113.85351562 C-19.01023437 113.04527344 -19.02828125 112.23703125 -19.046875 111.40429688 C-19.08167969 110.48197266 -19.08167969 110.48197266 -19.1171875 109.54101562 C-24.17835722 107.23526534 -29.16435125 106.81538139 -34.64453125 106.20117188 C-38.27520325 105.51097663 -40.85815524 104.23925965 -44.1171875 102.54101562 C-47.404361 101.73592396 -50.48179191 101.4108314 -53.85986328 101.38330078 C-54.77075714 101.37303864 -55.681651 101.36277649 -56.62014771 101.35220337 C-57.59112396 101.34490204 -58.56210022 101.33760071 -59.5625 101.33007812 C-61.62891445 101.30202987 -63.69532061 101.27336557 -65.76171875 101.24414062 C-69.01188094 101.20275611 -72.26188487 101.1658568 -75.51220703 101.13964844 C-78.65429294 101.11213206 -81.79568092 101.06628679 -84.9375 101.01757812 C-85.91252472 101.01432526 -86.88754944 101.01107239 -87.89212036 101.00772095 C-88.7967099 100.99115448 -89.70129944 100.97458801 -90.63330078 100.95751953 C-91.42874298 100.94943268 -92.22418518 100.94134583 -93.04373169 100.93301392 C-95.61784258 100.44636401 -96.42097851 99.47903977 -98.1171875 97.54101562 C-100.86729937 96.16595969 -103.09009198 96.39859605 -106.16821289 96.37988281 C-108.07643578 96.3654715 -108.07643578 96.3654715 -110.02320862 96.35076904 C-111.4204185 96.3459187 -112.81763048 96.34164045 -114.21484375 96.33789062 C-115.6477407 96.33213628 -117.08063763 96.32637858 -118.51353455 96.32061768 C-121.52391925 96.31010165 -124.53427724 96.30426421 -127.54467773 96.30078125 C-131.38220449 96.29532189 -135.21937185 96.27135202 -139.05678654 96.2428093 C-142.02098069 96.22407489 -144.98509058 96.21897142 -147.94933891 96.21744537 C-149.36258325 96.21443815 -150.77582679 96.20647564 -152.18901253 96.19326019 C-160.13992338 96.12426873 -166.7540115 96.40741144 -174.1171875 99.54101562 C-174.4471875 99.87101563 -174.7771875 100.20101562 -175.1171875 100.54101562 C-177.08340899 100.66305435 -179.05367865 100.72080053 -181.0234375 100.75195312 C-182.24289063 100.7803125 -183.46234375 100.80867187 -184.71875 100.83789062 C-187.28632443 100.88934502 -189.8540503 100.93379394 -192.421875 100.97070312 C-200.47640331 101.17333277 -207.93917824 101.36384781 -214.546875 106.38867188 C-220.07306608 113.96312781 -221.00744271 124.48783441 -222.1171875 133.54101562 C-226.27153105 132.84382144 -230.02232291 131.56944349 -233.96777344 130.10424805 C-234.63679688 129.85693436 -235.30582031 129.60962067 -235.99511719 129.35481262 C-238.19866773 128.5390955 -240.4001467 127.71794348 -242.6015625 126.89648438 C-244.1421817 126.32432394 -245.68289365 125.75241318 -247.22369385 125.18074036 C-250.45243405 123.98185487 -253.68018199 122.78034619 -256.90722656 121.5769043 C-261.02195512 120.04259702 -265.13883865 118.51417449 -269.25646591 116.98766613 C-272.44020808 115.80674009 -275.62288368 114.62296129 -278.80524445 113.43831825 C-280.32143879 112.87422558 -281.8379281 112.31092505 -283.3547287 111.74846458 C-291.04605917 108.89434072 -298.66896968 105.99436529 -306.1171875 102.54101562 C-305.7198076 85.33207739 -298.57524386 68.79516049 -291.1171875 53.54101562 C-290.79492188 52.87730957 -290.47265625 52.21360352 -290.140625 51.52978516 C-280.00228324 30.91824787 -264.8690748 11.10220423 -247.1171875 -3.45898438 C-246.61509766 -3.88405273 -246.11300781 -4.30912109 -245.59570312 -4.74707031 C-225.9870113 -21.33816439 -202.96384399 -34.55344003 -178.1171875 -41.45898438 C-177.35583496 -41.67393555 -176.59448242 -41.88888672 -175.81005859 -42.11035156 C-113.84352218 -59.33761392 -47.51529095 -43.16719357 0 0 Z M-115.1171875 -43.45898438 C-115.4471875 -42.46898438 -115.7771875 -41.47898437 -116.1171875 -40.45898438 C-114.6321875 -39.46898438 -114.6321875 -39.46898438 -113.1171875 -38.45898438 C-111.53928116 -35.30630635 -110.53027114 -31.9294709 -109.4296875 -28.58398438 C-109.11443115 -27.6375708 -108.7991748 -26.69115723 -108.47436523 -25.71606445 C-106.27290106 -18.76447908 -105.16424442 -12.76488132 -106.1171875 -5.45898438 C-108.0971875 -5.45898438 -110.0771875 -5.45898438 -112.1171875 -5.45898438 C-112.1171875 -4.46898437 -112.1171875 -3.47898438 -112.1171875 -2.45898438 C-110.55601931 -2.11946819 -108.99317412 -1.78765893 -107.4296875 -1.45898438 C-106.12451172 -1.18054688 -106.12451172 -1.18054688 -104.79296875 -0.89648438 C-102.18005786 -0.46926391 -99.75905712 -0.38282237 -97.1171875 -0.45898438 C-97.1171875 -1.44898438 -97.1171875 -2.43898437 -97.1171875 -3.45898438 C-98.7671875 -3.78898437 -100.4171875 -4.11898437 -102.1171875 -4.45898438 C-102.24038215 -15.64505815 -94.84790797 -23.43481688 -88.27880859 -31.75415039 C-86.92949303 -33.39062365 -86.92949303 -33.39062365 -87.1171875 -35.45898438 C-85.7971875 -35.45898438 -84.4771875 -35.45898438 -83.1171875 -35.45898438 C-83.1171875 -36.44898437 -83.1171875 -37.43898438 -83.1171875 -38.45898438 C-89.0571875 -39.44898437 -89.0571875 -39.44898437 -95.1171875 -40.45898438 C-95.1171875 -39.13898438 -95.1171875 -37.81898437 -95.1171875 -36.45898438 C-93.7971875 -36.45898438 -92.4771875 -36.45898438 -91.1171875 -36.45898438 C-99.10791393 -21.46362116 -99.10791393 -21.46362116 -103.1171875 -19.45898438 C-103.519375 -21.37710938 -103.519375 -21.37710938 -103.9296875 -23.33398438 C-105.0623771 -28.45960855 -106.54920051 -33.45187925 -108.1171875 -38.45898438 C-106.4671875 -38.45898438 -104.8171875 -38.45898438 -103.1171875 -38.45898438 C-103.1171875 -39.44898437 -103.1171875 -40.43898438 -103.1171875 -41.45898438 C-109.0571875 -42.44898437 -109.0571875 -42.44898437 -115.1171875 -43.45898438 Z M-130.1171875 -43.45898438 C-132.79794764 -43.47169173 -132.79794764 -43.47169173 -135.89453125 -43.03320312 C-137.04759766 -42.89591797 -138.20066406 -42.75863281 -139.38867188 -42.6171875 C-141.20334961 -42.38418945 -141.20334961 -42.38418945 -143.0546875 -42.14648438 C-144.26060547 -42.00275391 -145.46652344 -41.85902344 -146.70898438 -41.7109375 C-153.00328695 -41.00424014 -153.00328695 -41.00424014 -159.1171875 -39.45898438 C-158.7871875 -35.82898438 -158.4571875 -32.19898437 -158.1171875 -28.45898438 C-157.1271875 -28.45898438 -156.1371875 -28.45898438 -155.1171875 -28.45898438 C-155.1171875 -31.09898438 -155.1171875 -33.73898438 -155.1171875 -36.45898438 C-151.8171875 -36.78898437 -148.5171875 -37.11898437 -145.1171875 -37.45898438 C-145.148125 -36.22277344 -145.1790625 -34.9865625 -145.2109375 -33.71289062 C-145.2109375 -27.86707804 -144.42681322 -22.17692024 -143.6171875 -16.39648438 C-143.47410156 -15.34009766 -143.33101562 -14.28371094 -143.18359375 -13.1953125 C-142.83342853 -10.61576202 -142.47785913 -8.03708312 -142.1171875 -5.45898438 C-145.0871875 -4.96398437 -145.0871875 -4.96398437 -148.1171875 -4.45898438 C-147.7871875 -3.46898437 -147.4571875 -2.47898438 -147.1171875 -1.45898438 C-142.1671875 -1.78898437 -137.2171875 -2.11898437 -132.1171875 -2.45898438 C-132.1171875 -3.77898437 -132.1171875 -5.09898438 -132.1171875 -6.45898438 C-134.0971875 -6.45898438 -136.0771875 -6.45898438 -138.1171875 -6.45898438 C-138.16617188 -7.26078125 -138.21515625 -8.06257813 -138.265625 -8.88867188 C-138.91640689 -18.78504472 -139.96701726 -28.60995377 -141.1171875 -38.45898438 C-138.1471875 -38.45898438 -135.1771875 -38.45898438 -132.1171875 -38.45898438 C-131.4571875 -36.14898437 -130.7971875 -33.83898437 -130.1171875 -31.45898438 C-129.4571875 -31.45898438 -128.7971875 -31.45898438 -128.1171875 -31.45898438 C-128.06323272 -33.08362279 -128.02441555 -34.70876978 -127.9921875 -36.33398438 C-127.96898437 -37.23890625 -127.94578125 -38.14382812 -127.921875 -39.07617188 C-127.87393914 -41.64705432 -127.87393914 -41.64705432 -130.1171875 -43.45898438 Z M-188.9921875 -30.14648438 C-190.18585938 -29.71722656 -191.37953125 -29.28796875 -192.609375 -28.84570312 C-195.8890876 -27.5491575 -198.99181243 -26.08857596 -202.1171875 -24.45898438 C-201.7871875 -23.46898437 -201.4571875 -22.47898437 -201.1171875 -21.45898438 C-199.7971875 -21.78898437 -198.4771875 -22.11898437 -197.1171875 -22.45898438 C-196.94340576 -21.91806152 -196.76962402 -21.37713867 -196.59057617 -20.81982422 C-194.47106968 -14.32966271 -192.01601113 -8.00989596 -189.45898438 -1.68164062 C-189.15669922 -0.91980469 -188.85441406 -0.15796875 -188.54296875 0.62695312 C-188.26880127 1.30806152 -187.99463379 1.98916992 -187.7121582 2.69091797 C-187.1171875 4.54101562 -187.1171875 4.54101562 -187.1171875 7.54101562 C-188.1071875 8.03601563 -188.1071875 8.03601563 -189.1171875 8.54101562 C-188.7871875 9.53101563 -188.4571875 10.52101562 -188.1171875 11.54101562 C-183.27059673 10.94996797 -179.50970583 9.56157406 -175.1171875 7.54101562 C-175.4471875 6.55101562 -175.7771875 5.56101563 -176.1171875 4.54101562 C-179.0871875 5.03601563 -179.0871875 5.03601563 -182.1171875 5.54101562 C-182.32214844 4.84234375 -182.52710938 4.14367187 -182.73828125 3.42382812 C-183.00769531 2.51375 -183.27710938 1.60367188 -183.5546875 0.66601562 C-183.82152344 -0.23890625 -184.08835937 -1.14382812 -184.36328125 -2.07617188 C-185.04332576 -4.44173818 -185.04332576 -4.44173818 -186.1171875 -6.45898438 C-181.28964154 -8.65332345 -181.28964154 -8.65332345 -178.1171875 -8.45898438 C-175.47011135 -6.43861665 -173.44651396 -4.22879469 -171.29296875 -1.69335938 C-168.95192353 0.71073016 -167.32728475 1.64589235 -164.1171875 2.54101562 C-160.88890513 2.24013847 -160.88890513 2.24013847 -158.1171875 1.54101562 C-158.6121875 -0.43898438 -158.6121875 -0.43898438 -159.1171875 -2.45898438 C-159.9421875 -2.31460938 -160.7671875 -2.17023438 -161.6171875 -2.02148438 C-166.81827376 -2.67162016 -169.49804861 -5.85821675 -173.1171875 -9.45898438 C-172.5799015 -11.97849058 -172.26746321 -13.28466455 -170.5546875 -15.27148438 C-168.43848532 -18.49179205 -168.66087905 -20.67814289 -169.1171875 -24.45898438 C-170.90083835 -27.96022493 -172.15884975 -29.93189861 -175.6171875 -31.83398438 C-180.69548664 -33.10355916 -184.21810409 -31.88671478 -188.9921875 -30.14648438 Z M-59.01171875 -25.99023438 C-59.64464844 -25.31992188 -60.27757812 -24.64960937 -60.9296875 -23.95898438 C-61.62835938 -23.22421875 -62.32703125 -22.48945312 -63.046875 -21.73242188 C-66.9076489 -17.49285506 -70.66163468 -13.16844191 -74.37890625 -8.80273438 C-75.15878906 -7.90554687 -75.93867188 -7.00835937 -76.7421875 -6.08398438 C-77.45632813 -5.25125 -78.17046875 -4.41851562 -78.90625 -3.56054688 C-81.22714494 -1.35446652 -83.09097612 -0.42524836 -86.1171875 0.54101562 C-83.79837245 3.22003495 -81.79904282 4.20305966 -78.4296875 5.22851562 C-77.21732422 5.60556641 -77.21732422 5.60556641 -75.98046875 5.99023438 C-75.36558594 6.17199219 -74.75070312 6.35375 -74.1171875 6.54101562 C-74.1171875 5.55101562 -74.1171875 4.56101563 -74.1171875 3.54101562 C-75.4371875 3.21101563 -76.7571875 2.88101563 -78.1171875 2.54101562 C-76.4671875 0.56101562 -74.8171875 -1.41898438 -73.1171875 -3.45898438 C-68.71360305 -2.89077993 -65.07780584 -1.17483943 -61.10546875 0.70117188 C-59.16985336 1.67071848 -59.16985336 1.67071848 -57.1171875 1.54101562 C-57.4471875 4.51101562 -57.7771875 7.48101562 -58.1171875 10.54101562 C-60.0971875 10.21101563 -62.0771875 9.88101563 -64.1171875 9.54101562 C-63.44441378 12.57917004 -63.44441378 12.57917004 -61.375 13.70898438 C-60.67117188 14.04542969 -59.96734375 14.381875 -59.2421875 14.72851562 C-58.54351562 15.07269531 -57.84484375 15.416875 -57.125 15.77148438 C-55.008676 16.71995723 -55.008676 16.71995723 -52.1171875 16.54101562 C-52.1171875 15.55101562 -52.1171875 14.56101563 -52.1171875 13.54101562 C-52.7771875 13.54101562 -53.4371875 13.54101562 -54.1171875 13.54101562 C-53.93542969 12.30182373 -53.93542969 12.30182373 -53.75 11.03759766 C-53.297075 7.92591584 -52.8505811 4.8133927 -52.40820312 1.70019531 C-52.12332799 -0.29106278 -51.83127364 -2.28128959 -51.5390625 -4.27148438 C-49.68855621 -14.84295138 -49.68855621 -14.84295138 -50.1171875 -25.45898438 C-53.47524501 -27.69768938 -55.60195997 -28.63367623 -59.01171875 -25.99023438 Z M-26.84375 -8.92773438 C-27.47023438 -8.27804688 -28.09671875 -7.62835938 -28.7421875 -6.95898438 C-29.37382812 -6.30929688 -30.00546875 -5.65960938 -30.65625 -4.99023438 C-31.13835937 -4.48492187 -31.62046875 -3.97960937 -32.1171875 -3.45898438 C-31.7871875 -2.79898438 -31.4571875 -2.13898438 -31.1171875 -1.45898438 C-28.18839379 -2.08658303 -25.75623121 -3.04521096 -23.1171875 -4.45898438 C-21.4671875 -3.13898438 -19.8171875 -1.81898437 -18.1171875 -0.45898438 C-19.62519489 3.01736951 -21.66320645 5.40731464 -24.2421875 8.16601562 C-28.7803574 13.10872255 -32.9887554 18.25392274 -37.1171875 23.54101562 C-39.0971875 22.88101563 -41.0771875 22.22101563 -43.1171875 21.54101562 C-43.1171875 22.86101562 -43.1171875 24.18101562 -43.1171875 25.54101562 C-40.91898793 27.78538714 -40.91898793 27.78538714 -38.1171875 29.79101562 C-36.725 30.850625 -36.725 30.850625 -35.3046875 31.93164062 C-34.5828125 32.46273437 -33.8609375 32.99382812 -33.1171875 33.54101562 C-32.1271875 33.04601562 -32.1271875 33.04601562 -31.1171875 32.54101562 C-31.4678125 31.96351563 -31.8184375 31.38601562 -32.1796875 30.79101562 C-33.32570925 28.04056343 -33.15914207 27.29618396 -32.1171875 24.54101562 C-30.33203125 22.31445312 -30.33203125 22.31445312 -28.0546875 19.91601562 C-23.47558518 14.98467466 -19.25735873 9.84314227 -15.1171875 4.54101562 C-11.85707108 5.23480073 -10.32680497 5.99995553 -8.1171875 8.54101562 C-8.6121875 9.68570313 -8.6121875 9.68570313 -9.1171875 10.85351562 C-10.29155436 13.53170698 -10.29155436 13.53170698 -10.1171875 16.54101562 C-6.3219744 15.05003905 -4.50676019 12.78400714 -2.1171875 9.54101562 C-3.64449112 5.65253572 -5.99161383 3.77736378 -9.2421875 1.22851562 C-13.48106053 -2.13584615 -17.57019209 -5.58741478 -21.55859375 -9.24414062 C-23.88962258 -11.06105783 -24.65121743 -10.8722429 -26.84375 -8.92773438 Z M-233.1171875 -4.45898438 C-232.56604038 0.32653977 -231.58710678 4.43875435 -229.83203125 8.91992188 C-229.38408203 10.08845703 -228.93613281 11.25699219 -228.47460938 12.4609375 C-227.52615733 14.89403662 -226.57562781 17.32632691 -225.62304688 19.7578125 C-225.17638672 20.92505859 -224.72972656 22.09230469 -224.26953125 23.29492188 C-223.85695068 24.3501001 -223.44437012 25.40527832 -223.01928711 26.49243164 C-222.0799904 29.66672068 -221.94754622 32.25009801 -222.1171875 35.54101562 C-218.51144854 35.54101562 -217.70382184 34.72394101 -214.9296875 32.54101562 C-214.21425781 31.98414063 -213.49882812 31.42726562 -212.76171875 30.85351562 C-212.21902344 30.42039063 -211.67632812 29.98726562 -211.1171875 29.54101562 C-211.4471875 28.55101562 -211.7771875 27.56101563 -212.1171875 26.54101562 C-214.0971875 27.53101563 -216.0771875 28.52101562 -218.1171875 29.54101562 C-218.7771875 26.57101563 -219.4371875 23.60101563 -220.1171875 20.54101562 C-218.7971875 19.88101563 -217.4771875 19.22101563 -216.1171875 18.54101562 C-214.79033322 17.47531159 -213.47797255 16.39134434 -212.1796875 15.29101562 C-210.078125 13.68554688 -210.078125 13.68554688 -208.1171875 12.54101562 C-204.46324848 13.10940614 -202.50205056 14.77959524 -200.1171875 17.54101562 C-202.0971875 18.53101563 -202.0971875 18.53101563 -204.1171875 19.54101562 C-203.7871875 20.20101562 -203.4571875 20.86101562 -203.1171875 21.54101562 C-198.52412254 20.05502402 -195.68149505 17.69086881 -192.1171875 14.54101562 C-192.6121875 13.55101562 -192.6121875 13.55101562 -193.1171875 12.54101562 C-194.46478149 12.33968018 -194.46478149 12.33968018 -195.83959961 12.13427734 C-199.57319485 11.45847575 -201.49182168 10.24921993 -204.55859375 8.04882812 C-206.05229492 6.99115234 -206.05229492 6.99115234 -207.57617188 5.91210938 C-208.60033203 5.17089844 -209.62449219 4.4296875 -210.6796875 3.66601562 C-212.72176427 2.20903546 -214.76470294 0.75326241 -216.80859375 -0.70117188 C-218.15739624 -1.67352783 -218.15739624 -1.67352783 -219.53344727 -2.66552734 C-226.28725256 -7.80555472 -226.28725256 -7.80555472 -233.1171875 -4.45898438 Z M-258.1171875 18.54101562 C-259.66543494 20.12140145 -259.66543494 20.12140145 -260.9296875 22.22851562 C-261.38988281 22.91300781 -261.85007812 23.5975 -262.32421875 24.30273438 C-263.37001467 26.5457119 -263.37001467 26.5457119 -262.39550781 28.86767578 C-261.01869613 31.74698975 -259.41468892 34.03367716 -257.45703125 36.55273438 C-256.74611328 37.47505859 -256.03519531 38.39738281 -255.30273438 39.34765625 C-254.56087891 40.29833984 -253.81902344 41.24902344 -253.0546875 42.22851562 C-251.58329134 44.12721438 -250.11317275 46.02690409 -248.64453125 47.92773438 C-247.99218506 48.76522217 -247.33983887 49.60270996 -246.66772461 50.46557617 C-245.1171875 52.54101562 -245.1171875 52.54101562 -244.1171875 54.54101562 C-245.03757813 54.28707031 -245.95796875 54.033125 -246.90625 53.77148438 C-253.51372362 51.97495132 -260.12687355 50.24524308 -266.8046875 48.72851562 C-267.92230469 48.47457031 -269.03992188 48.220625 -270.19140625 47.95898438 C-273.00922652 47.55643862 -274.53471598 47.40268936 -277.1171875 48.54101562 C-278.69720305 50.0369173 -278.69720305 50.0369173 -279.9296875 51.91601562 C-280.36925781 52.521875 -280.80882812 53.12773437 -281.26171875 53.75195312 C-282.44906481 55.70294859 -282.44906481 55.70294859 -281.1171875 58.54101562 C-278.99354269 58.76710899 -278.99354269 58.76710899 -277.4921875 57.04101562 C-277.0384375 56.54601562 -276.5846875 56.05101562 -276.1171875 55.54101562 C-273.0747184 57.45641074 -270.03335919 59.37356133 -266.9921875 61.29101562 C-266.13625 61.82984375 -265.2803125 62.36867187 -264.3984375 62.92382812 C-260.77118224 65.21178913 -257.15614993 67.4974011 -253.625 69.93164062 C-251.33328621 71.72104725 -251.33328621 71.72104725 -249.1171875 71.54101562 C-249.7771875 73.52101562 -250.4371875 75.50101563 -251.1171875 77.54101562 C-250.1271875 77.54101562 -249.1371875 77.54101562 -248.1171875 77.54101562 C-246.3794485 75.69317387 -246.3794485 75.69317387 -244.8671875 73.29101562 C-244.32578125 72.50210938 -243.784375 71.71320313 -243.2265625 70.90039062 C-241.89119211 68.6212326 -241.89119211 68.6212326 -242.4453125 66.24414062 C-242.66703125 65.68210938 -242.88875 65.12007812 -243.1171875 64.54101562 C-244.1071875 65.53101563 -245.0971875 66.52101562 -246.1171875 67.54101562 C-250.92756758 65.88096289 -254.97914661 63.25880126 -259.2421875 60.54101562 C-259.95761719 60.08984375 -260.67304688 59.63867188 -261.41015625 59.17382812 C-264.33459925 57.3262361 -267.23875295 55.45997199 -270.1171875 53.54101562 C-262.53262529 54.31385016 -255.28966946 56.07203324 -247.8984375 57.90039062 C-246.95484375 58.1246875 -246.01125 58.34898437 -245.0390625 58.58007812 C-243.76434082 58.89259521 -243.76434082 58.89259521 -242.46386719 59.21142578 C-240.01299514 59.55564938 -238.44775841 59.31226918 -236.1171875 58.54101562 C-239.12506776 52.5252551 -243.22677697 47.66649318 -247.56640625 42.56445312 C-250.87104861 38.64746509 -254.01002029 34.61531435 -257.1171875 30.54101562 C-249.9364043 34.27276123 -243.19909404 38.38530939 -236.55078125 43.00195312 C-234.31536964 44.71918339 -234.31536964 44.71918339 -232.1171875 44.54101562 C-232.7771875 46.52101563 -233.4371875 48.50101563 -234.1171875 50.54101562 C-232.20879848 50.46336104 -232.20879848 50.46336104 -230.1171875 49.54101562 C-228.32056093 47.01514936 -228.32056093 47.01514936 -226.8671875 43.97851562 C-226.34640625 42.96660156 -225.825625 41.9546875 -225.2890625 40.91210938 C-224.90234375 40.12964844 -224.515625 39.3471875 -224.1171875 38.54101562 C-226.50282827 39.11685995 -228.78401534 39.76329157 -231.1171875 40.54101562 C-233.12255859 39.60058594 -233.12255859 39.60058594 -235.390625 38.11914062 C-236.215625 37.58804688 -237.040625 37.05695313 -237.890625 36.50976562 C-238.74914062 35.94257813 -239.60765625 35.37539062 -240.4921875 34.79101562 C-242.18730549 33.69175729 -243.88261255 32.59279044 -245.578125 31.49414062 C-246.37057617 30.97787109 -247.16302734 30.46160156 -247.97949219 29.9296875 C-252.22718133 26.7882235 -252.22718133 26.7882235 -257.1171875 25.54101562 C-256.4571875 23.23101562 -255.7971875 20.92101562 -255.1171875 18.54101562 C-256.1071875 18.54101562 -257.0971875 18.54101562 -258.1171875 18.54101562 Z M7.8828125 20.54101562 C6.54947917 23.54101562 6.54947917 23.54101562 7.8828125 26.54101562 C7.20089844 26.77046875 6.51898438 26.99992187 5.81640625 27.23632812 C2.15146379 28.8662759 -0.83914404 31.04156696 -4.0546875 33.41601562 C-6.40381451 35.13141281 -8.7581471 36.8392805 -11.1171875 38.54101562 C-12.18324219 39.311875 -13.24929688 40.08273438 -14.34765625 40.87695312 C-17.1171875 42.54101562 -17.1171875 42.54101562 -20.4921875 42.29101562 C-21.3584375 42.04351562 -22.2246875 41.79601562 -23.1171875 41.54101562 C-21.56016819 46.21207355 -19.03271377 49.62807248 -16.1171875 53.54101562 C-15.1271875 53.04601562 -15.1271875 53.04601562 -14.1171875 52.54101562 C-14.4471875 50.56101562 -14.7771875 48.58101562 -15.1171875 46.54101562 C-13.85479038 45.67442948 -12.58191249 44.82309503 -11.3046875 43.97851562 C-10.59699219 43.50285156 -9.88929688 43.0271875 -9.16015625 42.53710938 C-7.1171875 41.54101562 -7.1171875 41.54101562 -4.1171875 42.54101562 C-2.1171875 45.54101562 -2.1171875 45.54101562 -2.1796875 47.72851562 C-3.06748481 50.39190754 -4.09957138 52.20520646 -5.6171875 54.54101562 C-7.56386194 57.54848657 -9.01786662 59.86614301 -9.1171875 63.54101562 C-8.26739275 66.29357806 -8.26739275 66.29357806 -7.1171875 68.54101562 C-5.1371875 68.04601562 -5.1371875 68.04601562 -3.1171875 67.54101562 C-3.3853125 66.55101562 -3.6534375 65.56101563 -3.9296875 64.54101562 C-4.60979582 60.14715791 -2.75199386 57.71571981 -0.24609375 54.24023438 C1.06727046 52.60337839 1.06727046 52.60337839 0.8828125 50.54101562 C1.7078125 51.03601563 2.5328125 51.53101563 3.3828125 52.04101562 C7.80351516 53.93560248 10.10364738 54.07203397 14.8828125 53.54101562 C18.3259271 51.44520674 20.6296343 49.41447552 21.8828125 45.54101562 C22.32091043 40.54528595 21.30708885 37.84138727 18.6953125 33.60351562 C18.05851562 32.56839844 17.42171875 31.53328125 16.765625 30.46679688 C14.56562128 27.0481189 12.41468137 23.72393648 9.8828125 20.54101562 C9.2228125 20.54101562 8.5628125 20.54101562 7.8828125 20.54101562 Z M-158.1171875 28.54101562 C-158.7771875 29.20101562 -159.4371875 29.86101562 -160.1171875 30.54101562 C-159.58351562 30.87311035 -159.04984375 31.20520508 -158.5 31.54736328 C-156.0367163 33.08318657 -153.57695216 34.6245631 -151.1171875 36.16601562 C-149.85841797 36.94912109 -149.85841797 36.94912109 -148.57421875 37.74804688 C-134.13022118 46.81753372 -134.13022118 46.81753372 -130.1171875 52.54101562 C-134.19229686 53.41037229 -137.95532061 53.94344829 -142.1171875 53.54101562 C-144.7502725 51.71491086 -146.50343272 49.82449742 -148.49609375 47.32617188 C-149.03105469 46.73707031 -149.56601563 46.14796875 -150.1171875 45.54101562 C-151.1071875 45.54101562 -152.0971875 45.54101562 -153.1171875 45.54101562 C-152.7871875 48.18101562 -152.4571875 50.82101563 -152.1171875 53.54101562 C-152.80425781 53.18007812 -153.49132812 52.81914062 -154.19921875 52.44726562 C-155.55080078 51.75117188 -155.55080078 51.75117188 -156.9296875 51.04101562 C-158.26966797 50.34492188 -158.26966797 50.34492188 -159.63671875 49.63476562 C-162.12286776 48.33928421 -162.12286776 48.33928421 -165.1171875 48.54101562 C-163.98646473 51.5939671 -162.50346506 53.14898356 -159.9921875 55.10351562 C-158.5690625 56.31007813 -158.5690625 56.31007813 -157.1171875 57.54101562 C-157.1171875 58.53101563 -157.1171875 59.52101563 -157.1171875 60.54101562 C-155.7971875 60.54101562 -154.4771875 60.54101562 -153.1171875 60.54101562 C-152.8284375 61.13914063 -152.5396875 61.73726562 -152.2421875 62.35351562 C-151.06976724 64.73429354 -151.06976724 64.73429354 -149.1171875 67.54101562 C-148.4571875 67.54101562 -147.7971875 67.54101562 -147.1171875 67.54101562 C-146.7871875 65.89101562 -146.4571875 64.24101562 -146.1171875 62.54101562 C-142.05492929 62.42463137 -137.9931012 62.3537019 -133.9296875 62.29101562 C-132.77919922 62.2575 -131.62871094 62.22398437 -130.44335938 62.18945312 C-128.77563477 62.17011719 -128.77563477 62.17011719 -127.07421875 62.15039062 C-125.54244995 62.11896973 -125.54244995 62.11896973 -123.97973633 62.08691406 C-120.33462458 62.6651578 -118.69426761 63.94076033 -116.1171875 66.54101562 C-115.41015625 69.99414062 -115.41015625 69.99414062 -115.3046875 73.79101562 C-115.25699219 75.05429688 -115.20929688 76.31757813 -115.16015625 77.61914062 C-115.14597656 78.58335937 -115.13179687 79.54757813 -115.1171875 80.54101562 C-112.66225669 80.38131026 -112.66225669 80.38131026 -110.1171875 79.54101562 C-108.89626799 77.63867867 -108.89626799 77.63867867 -108.29296875 75.20898438 C-103.50605585 61.03260738 -103.50605585 61.03260738 -99.10742188 58.28613281 C-94.59764022 56.69642488 -89.94886342 56.29324295 -85.21240234 55.84814453 C-80.74781892 55.19369965 -76.91458679 52.86906946 -73.1171875 50.54101562 C-73.1171875 49.22101563 -73.1171875 47.90101563 -73.1171875 46.54101562 C-81.35459113 42.50636895 -87.33077713 43.38571383 -96.0546875 45.78710938 C-97.0653125 46.03589844 -98.0759375 46.2846875 -99.1171875 46.54101562 C-100.1263623 46.7947998 -101.13553711 47.04858398 -102.17529297 47.31005859 C-107.53077327 47.62383813 -111.34167574 45.98853785 -116.25 43.99023438 C-117.20486298 43.61623001 -118.15972595 43.24222565 -119.14352417 42.85688782 C-122.18261293 41.66248632 -125.212254 40.44592971 -128.2421875 39.22851562 C-130.28717686 38.42039671 -132.33274474 37.61374014 -134.37890625 36.80859375 C-138.1301068 35.3295289 -141.87810028 33.84297807 -145.62158203 32.34448242 C-146.41373108 32.02837006 -147.20588013 31.71225769 -148.02203369 31.38656616 C-149.70440214 30.70760525 -151.3771082 30.00472499 -153.04638672 29.29418945 C-155.21982007 28.37011296 -155.21982007 28.37011296 -158.1171875 28.54101562 Z M31.8828125 59.54101562 C31.2228125 60.20101562 30.5628125 60.86101562 29.8828125 61.54101562 C30.5428125 63.19101563 31.2028125 64.84101563 31.8828125 66.54101562 C30.81281006 66.72458618 30.81281006 66.72458618 29.72119141 66.91186523 C26.80520991 67.55821689 24.23550902 68.48717333 21.46875 69.60742188 C20.46070313 70.01025391 19.45265625 70.41308594 18.4140625 70.828125 C16.30182294 71.68164755 14.18984556 72.5358192 12.078125 73.390625 C11.07265625 73.79216797 10.0671875 74.19371094 9.03125 74.60742188 C8.11520996 74.97810791 7.19916992 75.34879395 6.25537109 75.73071289 C3.8828125 76.54101562 3.8828125 76.54101562 0.8828125 76.54101562 C0.2228125 75.55101562 -0.4371875 74.56101562 -1.1171875 73.54101562 C-1.7771875 73.54101562 -2.4371875 73.54101562 -3.1171875 73.54101562 C-2.48561755 78.59357526 -0.98259377 82.83694764 0.8828125 87.54101562 C1.8728125 87.54101562 2.8628125 87.54101562 3.8828125 87.54101562 C3.5528125 85.56101563 3.2228125 83.58101562 2.8828125 81.54101562 C3.40415771 81.37303467 3.92550293 81.20505371 4.46264648 81.03198242 C10.69816076 78.99172816 16.82306304 76.70953786 22.9453125 74.35351562 C23.90630859 73.98548828 24.86730469 73.61746094 25.85742188 73.23828125 C28.19988722 72.3409189 30.54166251 71.44180278 32.8828125 70.54101562 C33.5634375 71.53101563 33.5634375 71.53101563 34.2578125 72.54101562 C34.7940625 73.20101562 35.3303125 73.86101562 35.8828125 74.54101562 C36.5428125 74.54101562 37.2028125 74.54101562 37.8828125 74.54101562 C37.31455597 69.0005145 35.25394733 64.50385597 32.8828125 59.54101562 C32.5528125 59.54101562 32.2228125 59.54101562 31.8828125 59.54101562 Z M-289.1171875 76.54101562 C-289.1171875 77.53101563 -289.1171875 78.52101563 -289.1171875 79.54101562 C-288.1271875 80.20101562 -287.1371875 80.86101562 -286.1171875 81.54101562 C-286.7153125 81.76789063 -287.3134375 81.99476563 -287.9296875 82.22851562 C-290.89900826 84.01010808 -291.72000527 85.34745624 -293.1171875 88.54101562 C-294.11184632 93.15744741 -294.67020263 97.06630861 -292.9921875 101.54101562 C-290.74444856 103.93860383 -289.32142474 104.79584417 -286.1171875 105.54101562 C-282.39163364 105.46339992 -280.64132739 104.96860343 -277.7421875 102.60351562 C-274.59308287 99.12616557 -271.75576669 95.35875852 -268.88671875 91.65039062 C-267.1171875 89.54101562 -267.1171875 89.54101562 -265.1171875 88.54101562 C-262.1171875 88.29101562 -262.1171875 88.29101562 -259.1171875 88.54101562 C-256.62262833 92.28285438 -256.74112228 94.10344599 -257.1171875 98.54101562 C-257.9921875 101.91601562 -257.9921875 101.91601562 -260.1171875 104.54101562 C-263.45130631 105.35709624 -266.6927895 105.5281661 -270.1171875 105.54101562 C-269.7871875 106.86101562 -269.4571875 108.18101562 -269.1171875 109.54101562 C-265.33542239 110.55563553 -263.23657721 110.57541605 -259.4296875 109.47851562 C-255.40582712 107.12493691 -254.53760396 105.96008905 -253.1171875 101.54101562 C-252.19530735 96.63632516 -251.46461088 92.28121994 -253.2421875 87.54101562 C-255.46814428 85.16666173 -257.08635388 83.78090211 -260.1171875 82.54101562 C-264.89949904 82.54101562 -268.00448568 83.5532309 -271.5703125 86.80273438 C-274.22847251 89.78980813 -276.40950653 93.09418604 -278.6015625 96.43164062 C-280.1171875 98.54101562 -280.1171875 98.54101562 -282.1171875 99.54101562 C-285.1796875 99.66601562 -285.1796875 99.66601562 -288.1171875 99.54101562 C-289.1171875 98.54101562 -289.1171875 98.54101562 -289.3046875 95.29101562 C-289.12742203 91.74570613 -288.86441297 89.59866019 -287.1171875 86.54101562 C-283.88449915 84.26616086 -279.89807283 83.55894629 -276.1171875 82.54101562 C-276.1171875 81.55101562 -276.1171875 80.56101563 -276.1171875 79.54101562 C-280.4071875 78.55101562 -284.6971875 77.56101562 -289.1171875 76.54101562 Z " fill="#000000" transform="translate(375.1171875,114.458984375)"/>
<path d="M0 0 C0.88001678 0.00215515 1.76003357 0.0043103 2.66671753 0.00653076 C15.3985938 0.05653507 27.74218839 0.39698078 40.1875 3.3125 C41.08065918 3.51117676 41.97381836 3.70985352 42.89404297 3.91455078 C79.00388788 12.07824984 111.04400991 29.22853542 138.1875 54.3125 C138.74920898 54.82893066 139.31091797 55.34536133 139.88964844 55.87744141 C149.14233987 64.48163042 156.86425092 74.03412497 164.1875 84.3125 C164.5995166 84.8904834 165.0115332 85.4684668 165.43603516 86.06396484 C181.16578937 108.50919145 191.4716715 133.62253275 197.1875 160.3125 C197.35266113 161.03260254 197.51782227 161.75270508 197.68798828 162.49462891 C203.07015656 186.64481315 202.71044493 216.23246011 197.1875 240.3125 C197.01589355 241.11381348 196.84428711 241.91512695 196.66748047 242.74072266 C188.58371931 280.15430534 170.65970948 314.50917149 143.1875 341.3125 C142.383125 342.116875 141.57875 342.92125 140.75 343.75 C139.904375 344.595625 139.05875 345.44125 138.1875 346.3125 C137.64996094 346.88484375 137.11242187 347.4571875 136.55859375 348.046875 C109.55606284 376.23323294 69.23488719 393.4207738 31.1875 399.3125 C30.46498047 399.42819336 29.74246094 399.54388672 28.99804688 399.66308594 C-22.70829216 407.6197235 -77.02472937 393.69153305 -119.0625 362.875 C-133.43305214 351.72886538 -146.63577634 339.72262365 -157.8125 325.3125 C-158.23112305 324.78092285 -158.64974609 324.2493457 -159.08105469 323.70166016 C-183.84903151 292.07613008 -199.74496139 251.69330819 -200.8125 211.3125 C-200.83296387 210.57418945 -200.85342773 209.83587891 -200.87451172 209.07519531 C-202.14319718 155.95816608 -185.15000866 104.01686476 -148.49609375 64.83642578 C-138.93218274 54.82163399 -129.2882223 45.13248322 -117.8125 37.3125 C-117.16748535 36.87147949 -116.5224707 36.43045898 -115.85791016 35.97607422 C-94.99556292 21.8158231 -73.18516733 11.85516275 -48.8125 5.3125 C-47.78125 5.01601563 -46.75 4.71953125 -45.6875 4.4140625 C-30.75573104 0.31594113 -15.38359838 -0.06810528 0 0 Z M-84.8125 27.3125 C-85.48104004 27.6439502 -86.14958008 27.97540039 -86.83837891 28.31689453 C-131.64802693 50.78207932 -166.90264649 90.71074255 -183.0625 138.25 C-195.49347584 176.34026164 -196.47499032 217.91599339 -184.8125 256.3125 C-184.56516113 257.12879883 -184.31782227 257.94509766 -184.06298828 258.78613281 C-175.19788136 287.31252208 -159.74665989 312.34755239 -139.17724609 333.88037109 C-137.86301533 335.25949053 -136.56589339 336.65485213 -135.26953125 338.05078125 C-101.25898756 373.60491997 -51.5538474 392.28927063 -2.96411133 393.60009766 C16.68249028 393.81499882 36.39928356 391.00566673 55.1875 385.3125 C55.99316406 385.07047852 56.79882812 384.82845703 57.62890625 384.57910156 C89.38474196 374.80323613 116.05041651 356.93725036 139.1875 333.3125 C140.363125 332.15621094 140.363125 332.15621094 141.5625 330.9765625 C175.15028279 296.88896152 192.75373105 248.64621026 192.5 201.1875 C192.49577026 200.03748001 192.49577026 200.03748001 192.49145508 198.86422729 C192.33244945 169.97657978 186.24258496 142.24934494 173.1875 116.3125 C172.67582275 115.2611084 172.67582275 115.2611084 172.15380859 114.18847656 C150.74443377 70.29277654 111.29315397 35.47417717 65.36328125 19.0625 C16.27168765 2.17155512 -38.04157422 3.98868103 -84.8125 27.3125 Z " fill="#010101" transform="translate(249.8125,49.6875)"/>
<path d="M0 0 C1.29971741 -0.0071553 2.59943481 -0.01431061 3.9385376 -0.02168274 C5.38734412 -0.02452314 6.8361509 -0.02723485 8.28495789 -0.02983093 C9.80421607 -0.03609443 11.32347271 -0.04274113 12.84272766 -0.04974365 C16.97710528 -0.06716339 21.11147132 -0.07770797 25.24587655 -0.08594918 C27.82792312 -0.09109708 30.40996609 -0.09717289 32.99201012 -0.10346031 C41.06779222 -0.12251477 49.14356515 -0.13674559 57.21936542 -0.14507228 C66.54685599 -0.15484788 75.87410945 -0.18117466 85.20151645 -0.22157317 C92.40752215 -0.25171441 99.6134598 -0.26653924 106.81952733 -0.26985329 C111.12507493 -0.27220599 115.4303693 -0.28119468 119.73584938 -0.30631447 C123.78654389 -0.32956567 127.8368179 -0.33384053 131.8875618 -0.32355309 C133.3738679 -0.3230569 134.86019448 -0.32940189 136.34643745 -0.34310913 C138.37638936 -0.36078257 140.4065232 -0.35135144 142.43652344 -0.34057617 C143.57234014 -0.34296453 144.70815683 -0.34535288 145.87839222 -0.34781361 C149.58301639 0.25730958 151.24163658 1.55851535 153.90873718 4.14717102 C155.29099735 6.91169135 155.00399105 9.19330732 154.97123718 12.27217102 C154.96221375 13.36787415 154.95319031 14.46357727 154.94389343 15.59248352 C154.92649109 16.85705383 154.92649109 16.85705383 154.90873718 18.14717102 C152.04770754 18.38963116 149.71472711 18.58006538 146.90873718 18.14717102 C144.09623718 15.77217102 144.09623718 15.77217102 141.90873718 13.14717102 C137.56594419 10.25197569 134.48039132 9.87144222 129.34623718 10.77217102 C125.52341355 12.30130048 123.59250299 14.06873377 120.90873718 17.14717102 C119.00332869 19.05257951 115.60894496 18.3149879 113.08158875 18.34004211 C112.36770996 18.3482196 111.65383118 18.35639709 110.9183197 18.36482239 C108.5453425 18.38972376 106.1724254 18.40620629 103.79936218 18.42060852 C102.9901104 18.4259322 102.18085861 18.43125587 101.34708405 18.43674088 C97.06198065 18.46349588 92.7769066 18.48286127 88.491745 18.49726868 C84.06508302 18.51390264 79.63916761 18.55866233 75.21278763 18.60964012 C71.81040089 18.64330503 68.40819124 18.65484536 65.00565338 18.66049576 C63.3741512 18.66721279 61.74266086 18.68244679 60.1113205 18.70638657 C57.82475185 18.73802094 55.54019392 18.73807849 53.25346375 18.73066711 C51.95298096 18.73875397 50.65249817 18.74684082 49.31260681 18.75517273 C45.04248246 17.99243996 43.66076116 16.40945726 40.90873718 13.14717102 C36.81542827 9.6558193 32.81718906 9.64504502 27.63529968 9.79170227 C23.48005517 10.33343186 21.26182436 11.63235564 17.90873718 14.14717102 C17.46167419 14.84552063 17.01461121 15.54387024 16.55400085 16.26338196 C14.90873718 18.14717102 14.90873718 18.14717102 12.45683289 18.60127258 C11.50896912 18.58032532 10.56110535 18.55937805 9.58451843 18.53779602 C8.55649109 18.5249054 7.52846375 18.51201477 6.46928406 18.49873352 C5.39742859 18.4652179 4.32557312 18.43170227 3.22123718 18.39717102 C2.13778015 18.37912415 1.05432312 18.36107727 -0.06196594 18.34248352 C-2.7387744 18.29531509 -5.41512916 18.22357135 -8.09126282 18.14717102 C-8.09126282 12.53717102 -8.09126282 6.92717102 -8.09126282 1.14717102 C-5.32829785 -0.23431146 -3.09336707 0.01165032 0 0 Z " fill="#000000" transform="translate(163.0912628173828,249.8528289794922)"/>
<path d="M0 0 C0.88494141 -0.01224609 1.76988281 -0.02449219 2.68164062 -0.03710938 C3.52791016 -0.03904297 4.37417969 -0.04097656 5.24609375 -0.04296875 C6.02525146 -0.04707764 6.80440918 -0.05118652 7.60717773 -0.05541992 C9.5625 0.1875 9.5625 0.1875 11.5625 2.1875 C11.828125 4.9375 11.828125 4.9375 11.8125 8.1875 C11.81765625 9.26 11.8228125 10.3325 11.828125 11.4375 C11.5625 14.1875 11.5625 14.1875 9.5625 16.1875 C7.71484375 16.44628906 7.71484375 16.44628906 5.5 16.453125 C4.30503906 16.45699219 4.30503906 16.45699219 3.0859375 16.4609375 C2.25320313 16.45320313 1.42046875 16.44546875 0.5625 16.4375 C-0.27023437 16.44523437 -1.10296875 16.45296875 -1.9609375 16.4609375 C-2.75757813 16.45835937 -3.55421875 16.45578125 -4.375 16.453125 C-5.10589844 16.45086914 -5.83679688 16.44861328 -6.58984375 16.44628906 C-8.4375 16.1875 -8.4375 16.1875 -10.4375 14.1875 C-10.66796875 11.18359375 -10.66796875 11.18359375 -10.625 7.625 C-10.61533203 5.85962891 -10.61533203 5.85962891 -10.60546875 4.05859375 C-10.25842133 -1.87349586 -4.81854677 0.00349423 0 0 Z " fill="#000000" transform="translate(277.4375,230.8125)"/>
<path d="M0 0 C0.77915771 0.00410889 1.55831543 0.00821777 2.36108398 0.01245117 C3.20735352 0.01438477 4.05362305 0.01631836 4.92553711 0.01831055 C5.81047852 0.03055664 6.69541992 0.04280273 7.60717773 0.05541992 C8.49598633 0.05606445 9.38479492 0.05670898 10.30053711 0.05737305 C16.90446676 0.10270895 16.90446676 0.10270895 18.04467773 1.24291992 C18.17005514 3.38599889 18.22042138 5.53370878 18.23217773 7.68041992 C18.24635742 8.85475586 18.26053711 10.0290918 18.27514648 11.23901367 C18.04467773 14.24291992 18.04467773 14.24291992 16.04467773 16.24291992 C13.19190219 16.44188273 10.45800401 16.52116923 7.60717773 16.49291992 C6.4421875 16.50452148 6.4421875 16.50452148 5.25366211 16.51635742 C1.34415606 16.50288798 -0.63479259 16.45660638 -3.95532227 14.24291992 C-4.31860352 11.49291992 -4.31860352 11.49291992 -4.26782227 8.24291992 C-4.26395508 7.17041992 -4.26008789 6.09791992 -4.25610352 4.99291992 C-3.90555295 1.78788614 -3.35698627 0.41705598 0 0 Z " fill="#000000" transform="translate(243.955322265625,230.757080078125)"/>
<path d="M0 0 C0.88494141 -0.020625 1.76988281 -0.04125 2.68164062 -0.0625 C3.95104492 -0.07023438 3.95104492 -0.07023438 5.24609375 -0.078125 C6.02525146 -0.0874707 6.80440918 -0.09681641 7.60717773 -0.10644531 C8.25243408 0.01118164 8.89769043 0.12880859 9.5625 0.25 C11.70803377 3.46830065 11.85833868 4.51786507 11.875 8.25 C11.89175781 9.11625 11.90851563 9.9825 11.92578125 10.875 C11.48453384 13.75971423 10.81296454 14.45568486 8.5625 16.25 C5.62317135 16.52091929 2.93143917 16.62331824 0 16.5625 C-0.78052734 16.56572266 -1.56105469 16.56894531 -2.36523438 16.57226562 C-8.17033019 16.51716981 -8.17033019 16.51716981 -10.4375 14.25 C-10.66796875 11.24609375 -10.66796875 11.24609375 -10.625 7.6875 C-10.61533203 5.92212891 -10.61533203 5.92212891 -10.60546875 4.12109375 C-10.25895554 -1.80186453 -4.82036642 0.02796442 0 0 Z " fill="#000000" transform="translate(197.4375,230.75)"/>
<path d="M0 0 C0.83273438 -0.020625 1.66546875 -0.04125 2.5234375 -0.0625 C3.32007813 -0.06765625 4.11671875 -0.0728125 4.9375 -0.078125 C5.66839844 -0.0874707 6.39929688 -0.09681641 7.15234375 -0.10644531 C7.76207031 0.01118164 8.37179688 0.12880859 9 0.25 C11.14553377 3.46830065 11.29583868 4.51786507 11.3125 8.25 C11.32925781 9.11625 11.34601563 9.9825 11.36328125 10.875 C10.92203384 13.75971423 10.25046454 14.45568486 8 16.25 C5.06067135 16.52091929 2.36893917 16.62331824 -0.5625 16.5625 C-1.34302734 16.56572266 -2.12355469 16.56894531 -2.92773438 16.57226562 C-8.73283019 16.51716981 -8.73283019 16.51716981 -11 14.25 C-11.1953125 11.2109375 -11.1953125 11.2109375 -11.125 7.625 C-11.10695312 6.43648437 -11.08890625 5.24796875 -11.0703125 4.0234375 C-11.04710937 3.10820312 -11.02390625 2.19296875 -11 1.25 C-7.57851142 -0.46074429 -3.77061317 0.02334745 0 0 Z " fill="#000000" transform="translate(225,230.75)"/>
<path d="M0 0 C1.12535156 0.00580078 1.12535156 0.00580078 2.2734375 0.01171875 C3.02367187 0.00785156 3.77390625 0.00398437 4.546875 0 C10.14682697 0.01010822 10.14682697 0.01010822 11.2734375 1.13671875 C11.39881491 3.27979771 11.44918114 5.42750761 11.4609375 7.57421875 C11.47511719 8.74855469 11.48929687 9.92289063 11.50390625 11.1328125 C11.2734375 14.13671875 11.2734375 14.13671875 9.2734375 16.13671875 C6.0859375 16.40234375 6.0859375 16.40234375 2.2734375 16.38671875 C1.0153125 16.391875 -0.2428125 16.39703125 -1.5390625 16.40234375 C-4.7265625 16.13671875 -4.7265625 16.13671875 -6.7265625 14.13671875 C-6.95703125 11.1328125 -6.95703125 11.1328125 -6.9140625 7.57421875 C-6.90439453 5.80884766 -6.90439453 5.80884766 -6.89453125 4.0078125 C-6.60087567 -1.0116491 -4.5229817 0.00816423 0 0 Z " fill="#000000" transform="translate(300.7265625,230.86328125)"/>
<path d="M0 0 C4.57407707 4.20320596 7.56026341 7.85902436 8.4375 14.125 C8 17 8 17 6.4375 19.375 C3.05010319 21.63326454 0.9982841 21.56116268 -3 21 C-7.20141101 18.45961195 -9.45648348 15.14498989 -12 11 C-10.50253294 7.11002809 -8.29577922 5.53051948 -4.875 3.25 C-3.50988281 2.32960937 -3.50988281 2.32960937 -2.1171875 1.390625 C-1.06917969 0.70226562 -1.06917969 0.70226562 0 0 Z " fill="#010101" transform="translate(385,143)"/>
<path d="M0 0 C2.96135546 2.58169451 3.86756104 4.18881135 4.5 8.0625 C3.86116762 11.81564024 3.03726229 12.72205328 0 15 C-6.85517241 19 -6.85517241 19 -11 19 C-11.8680908 17.08959948 -12.71901783 15.17139263 -13.5625 13.25 C-14.03816406 12.18265625 -14.51382813 11.1153125 -15.00390625 10.015625 C-16 7 -16 7 -15.87890625 4.71875 C-14.71725563 2.44707769 -13.76398763 2.08015014 -11.375 1.25 C-7.4569319 -0.01389294 -4.12692867 -0.6349121 0 0 Z " fill="#010101" transform="translate(198,86)"/>
<path d="M0 0 C0.66 0 1.32 0 2 0 C1.6902353 2.8961496 1.37728812 5.79189576 1.0625 8.6875 C0.93198242 9.91243164 0.93198242 9.91243164 0.79882812 11.16210938 C0.36241272 15.15450219 -0.11302376 19.07652852 -1 23 C-5.72065967 21.45730076 -10.41664092 19.92205381 -15 18 C-13.71042686 15.18947006 -12.32935483 13.05202908 -10.21484375 10.80078125 C-9.68439453 10.23166016 -9.15394531 9.66253906 -8.60742188 9.07617188 C-8.05634766 8.49416016 -7.50527344 7.91214844 -6.9375 7.3125 C-6.10508789 6.42208008 -6.10508789 6.42208008 -5.25585938 5.51367188 C-1.47614397 1.47614397 -1.47614397 1.47614397 0 0 Z " fill="#010101" transform="translate(320,90)"/>
<path d="M0 0 C7.09470574 3.64370072 13.90074087 7.83558059 20 13 C20 13.66 20 14.32 20 15 C18.217871 16.44074715 16.37339724 17.80510649 14.5 19.125 C12.96859375 20.21167969 12.96859375 20.21167969 11.40625 21.3203125 C10.6121875 21.87460938 9.818125 22.42890625 9 23 C6.86106416 20.86106416 6.29883077 19.52090732 5.2734375 16.71875 C4.9640625 15.87699219 4.6546875 15.03523438 4.3359375 14.16796875 C4.01882812 13.28753906 3.70171875 12.40710938 3.375 11.5 C3.05015625 10.61957031 2.7253125 9.73914063 2.390625 8.83203125 C0 2.27287946 0 2.27287946 0 0 Z " fill="#010101" transform="translate(145,110)"/>
<path d="M0 0 C2.3828125 0.015625 2.3828125 0.015625 5 1 C6.6171875 3.984375 6.6171875 3.984375 7.875 7.75 C8.30554688 8.98234375 8.73609375 10.2146875 9.1796875 11.484375 C9.97385726 14.8879597 10.0172447 16.70965295 9 20 C7.52093108 20.02689216 6.04172517 20.04634621 4.5625 20.0625 C3.32693359 20.07990234 3.32693359 20.07990234 2.06640625 20.09765625 C0 20 0 20 -1 19 C-1.0983721 17.66956375 -1.13078592 16.33406656 -1.1328125 15 C-1.13410156 14.195625 -1.13539063 13.39125 -1.13671875 12.5625 C-1.13285156 11.716875 -1.12898438 10.87125 -1.125 10 C-1.12886719 9.154375 -1.13273437 8.30875 -1.13671875 7.4375 C-1.13542969 6.633125 -1.13414062 5.82875 -1.1328125 5 C-1.13168457 4.2575 -1.13055664 3.515 -1.12939453 2.75 C-1 1 -1 1 0 0 Z " fill="#010101" transform="translate(333,231)"/>
<path d="M0 0 C2.97851562 0.43945312 2.97851562 0.43945312 5.95703125 0.87890625 C8.2025342 1.13904799 8.2025342 1.13904799 11 0 C11 0.99 11 1.98 11 3 C16.94 4.485 16.94 4.485 23 6 C22.01 4.68 21.02 3.36 20 2 C22.78198081 2.39742583 23.83034335 2.81216585 25.75 4.9375 C28.50983631 7.46734995 30.61699668 7.96021667 34.25 8.75 C35.32765625 8.99234375 36.4053125 9.2346875 37.515625 9.484375 C38.33546875 9.65453125 39.1553125 9.8246875 40 10 C40 9.34 40 8.68 40 8 C42 6.375 42 6.375 44 5 C44.66 5.33 45.32 5.66 46 6 C45.67 6.33 45.34 6.66 45 7 C48.46712111 8.15570704 51.5414956 8.32835293 55.1875 8.5625 C57.09595703 8.68818359 57.09595703 8.68818359 59.04296875 8.81640625 C60.50669922 8.90728516 60.50669922 8.90728516 62 9 C62 9.66 62 10.32 62 11 C60.2709226 11.02725341 58.54171824 11.04650987 56.8125 11.0625 C55.36810547 11.07990234 55.36810547 11.07990234 53.89453125 11.09765625 C51.14423487 11.00486622 48.67520409 10.62111685 46 10 C46.495 11.485 46.495 11.485 47 13 C42.55908741 14.57580769 39.74477126 13.3691223 35.5390625 11.8359375 C29.54001542 9.86086661 23.31035097 8.85245582 17 9 C17 8.34 17 7.68 17 7 C16.21625 6.9175 15.4325 6.835 14.625 6.75 C9.85951618 5.76403783 5.35937066 4.17558046 1 2 C0.67 1.34 0.34 0.68 0 0 Z " fill="#171616" transform="translate(255,381)"/>
<path d="M0 0 C1.98 0 3.96 0 6 0 C6 5.94 6 11.88 6 18 C3.69 18 1.38 18 -1 18 C-2.41693757 15.16612485 -2.1699013 12.71970627 -2.1875 9.5625 C-2.20167969 8.40878906 -2.21585937 7.25507813 -2.23046875 6.06640625 C-2 3 -2 3 0 0 Z " fill="#010101" transform="translate(319,231)"/>
<path d="M0 0 C3 0.125 3 0.125 4 1.125 C4.09851171 2.95615883 4.12972629 4.79119933 4.125 6.625 C4.12757813 7.6253125 4.13015625 8.625625 4.1328125 9.65625 C4 12.125 4 12.125 3 13.125 C0 13.25 0 13.25 -3 13.125 C-4 12.125 -4 12.125 -4.1328125 9.65625 C-4.13023437 8.6559375 -4.12765625 7.655625 -4.125 6.625 C-4.12757813 5.6246875 -4.13015625 4.624375 -4.1328125 3.59375 C-3.93755824 -0.03568207 -3.6938095 0.15390873 0 0 Z " fill="#010101" transform="translate(178,230.875)"/>
<path d="M0 0 C3.0625 0.1875 3.0625 0.1875 5.0625 2.1875 C5.375 5.1875 5.375 5.1875 5.0625 8.1875 C2.0625 10.1875 2.0625 10.1875 -0.5 10 C-2.9375 9.1875 -2.9375 9.1875 -4.9375 6.1875 C-4.23305896 0.27019525 -4.23305896 0.27019525 0 0 Z " fill="#010101" transform="translate(295.9375,272.8125)"/>
<path d="M0 0 C0.99 0.103125 1.98 0.20625 3 0.3125 C5 3.3125 5 3.3125 4.75 5.875 C4 8.3125 4 8.3125 2 10.3125 C-1.125 9.9375 -1.125 9.9375 -4 9.3125 C-4.625 5.9375 -4.625 5.9375 -5 2.3125 C-3 0.3125 -3 0.3125 0 0 Z " fill="#010101" transform="translate(194,272.6875)"/>
<path d="M0 0 C2.5625 2.25 2.5625 2.25 5 5 C5 7.25 5 7.25 4 9 C3.01 9.33 2.02 9.66 1 10 C-0.65 8.35 -2.3 6.7 -4 5 C-2.25 1.125 -2.25 1.125 0 0 Z " fill="#010101" transform="translate(298,348)"/>
<path d="M0 0 C2.97851562 0.43945312 2.97851562 0.43945312 5.95703125 0.87890625 C8.2025342 1.13904799 8.2025342 1.13904799 11 0 C11 0.99 11 1.98 11 3 C12.28197266 3.39832031 12.28197266 3.39832031 13.58984375 3.8046875 C15.24693359 4.33449219 15.24693359 4.33449219 16.9375 4.875 C18.03964844 5.22304688 19.14179688 5.57109375 20.27734375 5.9296875 C23 7 23 7 24 9 C21.69 9 19.38 9 17 9 C17 8.34 17 7.68 17 7 C16.21625 6.9175 15.4325 6.835 14.625 6.75 C9.85951618 5.76403783 5.35937066 4.17558046 1 2 C0.67 1.34 0.34 0.68 0 0 Z " fill="#0C0C0C" transform="translate(255,381)"/>
<path d="M0 0 C0.74056641 0.06574219 1.48113281 0.13148438 2.24414062 0.19921875 C4.06046459 0.36327382 5.87434686 0.55398344 7.6875 0.75 C7.6875 1.41 7.6875 2.07 7.6875 2.75 C5.9584226 2.77725341 4.22921824 2.79650987 2.5 2.8125 C1.05560547 2.82990234 1.05560547 2.82990234 -0.41796875 2.84765625 C-3.16826513 2.75486622 -5.63729591 2.37111685 -8.3125 1.75 C-7.9825 2.74 -7.6525 3.73 -7.3125 4.75 C-8.9625 5.08 -10.6125 5.41 -12.3125 5.75 C-12.6425 5.09 -12.9725 4.43 -13.3125 3.75 C-9.07199765 -0.56577754 -5.72225764 -0.64432928 0 0 Z " fill="#121212" transform="translate(309.3125,389.25)"/>
<path d="M0 0 C1.051875 0.4640625 1.051875 0.4640625 2.125 0.9375 C5.08936657 2.03302678 7.87698108 2.56422992 11 3 C11 3.66 11 4.32 11 5 C10.34 5.66 9.68 6.32 9 7 C4.65093573 6.67176873 0.9657368 5.80260764 -3 4 C-2.01 3.34 -1.02 2.68 0 2 C0 1.34 0 0.68 0 0 Z " fill="#161616" transform="translate(321,388)"/>
<path d="M0 0 C8.415 1.98 8.415 1.98 17 4 C14 6 14 6 10.42578125 5.5390625 C9.05193491 5.24703719 7.68083414 4.94185048 6.3125 4.625 C5.61060547 4.47289062 4.90871094 4.32078125 4.18554688 4.1640625 C2.4545538 3.78724768 0.72691413 3.39508737 -1 3 C-0.67 2.01 -0.34 1.02 0 0 Z " fill="#0A0A0A" transform="translate(252,364)"/>
<path d="M0 0 C0.66 0.33 1.32 0.66 2 1 C1.42655063 3.86724686 1.1385485 4.8614515 -1 7 C-3.625 7.125 -3.625 7.125 -6 7 C-6.33 6.34 -6.66 5.68 -7 5 C-6.01 5 -5.02 5 -4 5 C-4 4.34 -4 3.68 -4 3 C-2 1.375 -2 1.375 0 0 Z " fill="#202020" transform="translate(299,386)"/>
<path d="M0 0 C2.64 0 5.28 0 8 0 C8 0.66 8 1.32 8 2 C5.36 2 2.72 2 0 2 C0 1.34 0 0.68 0 0 Z " fill="#030303" transform="translate(321,258)"/>
<path d="M0 0 C2.64 0 5.28 0 8 0 C8 0.33 8 0.66 8 1 C5.36 1 2.72 1 0 1 C0 0.67 0 0.34 0 0 Z " fill="#030303" transform="translate(321,261)"/>
<path d="" fill="#000000" transform="translate(0,0)"/>
<path d="" fill="#000000" transform="translate(0,0)"/>
<path d="" fill="#000000" transform="translate(0,0)"/>
<path d="" fill="#000000" transform="translate(0,0)"/>
<path d="" fill="#000000" transform="translate(0,0)"/>
<path d="" fill="#000000" transform="translate(0,0)"/>
</svg>
